<svg xmlns="http://www.w3.org/2000/svg" xmlns:svg="http://www.w3.org/2000/svg" id="svg2" width="404.419" height="117.283" version="1.1" viewBox="0 0 379.143 109.953"><defs id="defs4"><filter id="filter4155" color-interpolation-filters="sRGB"><feGaussianBlur id="feGaussianBlur4157" in="SourceAlpha" result="result0" stdDeviation="2.3"/><feMorphology id="feMorphology4159" in="SourceAlpha" radius="6.6" result="result1"/><feGaussianBlur id="feGaussianBlur4161" in="result1" stdDeviation="8.9"/><feColorMatrix id="feColorMatrix4163" result="result91" values="1 0 0 0 0 0 1 0 0 0 0 0 1 0 0 0 0 0 0.3 0"/><feComposite id="feComposite4165" in="result0" in2="result91" operator="out" result="result2"/><feGaussianBlur id="feGaussianBlur4167" result="result4" stdDeviation="1.7"/><feDiffuseLighting id="feDiffuseLighting4169" surfaceScale="10"><feDistantLight id="feDistantLight4171" azimuth="225" elevation="45"/></feDiffuseLighting><feBlend id="feBlend4173" in2="SourceGraphic" mode="multiply"/><feComposite id="feComposite4175" in2="SourceAlpha" operator="in" result="result3"/><feSpecularLighting id="feSpecularLighting4177" in="result4" specularExponent="17.9" surfaceScale="5"><feDistantLight id="feDistantLight4179" azimuth="225" elevation="45"/></feSpecularLighting><feComposite id="feComposite4181" in2="result3" operator="atop"/></filter><filter id="filter4455" color-interpolation-filters="sRGB"><feGaussianBlur id="feGaussianBlur4457" in="SourceAlpha" result="result0" stdDeviation="2.3"/><feMorphology id="feMorphology4459" in="SourceAlpha" radius="6.6" result="result1"/><feGaussianBlur id="feGaussianBlur4461" in="result1" stdDeviation="8.9"/><feColorMatrix id="feColorMatrix4463" result="result91" values="1 0 0 0 0 0 1 0 0 0 0 0 1 0 0 0 0 0 0.3 0"/><feComposite id="feComposite4465" in="result0" in2="result91" operator="out" result="result2"/><feGaussianBlur id="feGaussianBlur4467" result="result4" stdDeviation="1.7"/><feDiffuseLighting id="feDiffuseLighting4469" surfaceScale="10"><feDistantLight id="feDistantLight4471" azimuth="225" elevation="45"/></feDiffuseLighting><feBlend id="feBlend4473" in2="SourceGraphic" mode="multiply"/><feComposite id="feComposite4475" in2="SourceAlpha" operator="in" result="result3"/><feSpecularLighting id="feSpecularLighting4477" in="result4" specularExponent="17.9" surfaceScale="5"><feDistantLight id="feDistantLight4479" azimuth="225" elevation="45"/></feSpecularLighting><feComposite id="feComposite4481" in2="result3" operator="atop"/></filter></defs><metadata id="metadata7"/><g id="layer1" transform="translate(-127.41673,-42.330364)"><rect id="rect4146" width="379.143" height="109.953" x="127.417" y="42.33" fill="#3bafda" fill-opacity="1" stroke="none" stroke-dasharray="none" stroke-miterlimit="4" stroke-opacity="1" stroke-width="3.8"/><path id="path4144" fill="#e2f1f8" fill-opacity="1" stroke="#2080a2" stroke-dasharray="none" stroke-linecap="butt" stroke-linejoin="miter" stroke-miterlimit="4" stroke-opacity="1" stroke-width="3.8" d="m 463.11719,79.232422 c -11.75208,0 -22.09262,4.527614 -30.28516,13.220703 -6.5e-4,6.89e-4 -0.001,0.0013 -0.002,0.002 -8.18815,8.611432 -12.41509,19.371942 -12.49805,31.650392 a 3.3020386,3.3020386 0 0 0 0,0.043 c 0.083,12.28377 4.31109,23.07937 12.49805,31.76758 a 3.3020386,3.3020386 0 0 0 0.01,0.0117 c 8.19588,8.61404 18.53221,13.09375 30.27735,13.09375 11.81749,0 22.16684,-4.47877 30.29101,-13.10546 a 3.3020386,3.3020386 0 0 0 0.01,-0.0117 c 8.10576,-8.69072 12.28424,-19.4799 12.36719,-31.75586 a 3.3020386,3.3020386 0 0 0 0,-0.043 c -0.0829,-12.27062 -4.26018,-23.02465 -12.36719,-31.638673 l -0.002,-0.002 C 485.29529,83.759136 474.94155,79.232422 463.11719,79.232422 Z m -321.14453,1.171875 c -1.55195,0 -3.22321,0.684152 -4.32618,1.787109 -1.10298,1.102975 -1.7871,2.774237 -1.7871,4.326172 l 0,76.390622 c 0,1.55194 0.68414,3.22321 1.7871,4.32618 1.10297,1.10296 2.77424,1.7871 4.32618,1.7871 1.5147,0 3.12829,-0.6703 4.22851,-1.7246 1.16971,-1.0663 2,-2.76283 2,-4.38868 l 0,-28.95703 16.96875,-0.19726 c 7.18323,0 13.65748,-2.68092 18.73828,-7.76172 5.14926,-5.14925 7.87891,-11.65686 7.87891,-18.85352 0,-7.255315 -2.72233,-13.775816 -7.87891,-18.855467 -5.0729,-5.149818 -11.55146,-7.878906 -18.73828,-7.878906 l -23.19726,0 z m 68.19336,0 c -1.55195,0 -3.22321,0.684152 -4.32618,1.787109 -1.10298,1.102975 -1.78711,2.774237 -1.78711,4.326172 l 0,76.390622 c 0,1.55194 0.68414,3.22321 1.78711,4.32618 1.10297,1.10296 2.77424,1.7871 4.32618,1.7871 l 42.17773,0 c 1.51475,0 3.1277,-0.66779 4.23047,-1.7246 1.16968,-1.06629 2,-2.7628 2,-4.38868 0,-1.58837 -0.80507,-3.22829 -1.93164,-4.29882 -1.07054,-1.12658 -2.71048,-1.93165 -4.29883,-1.93165 l -35.94922,0 0,-70.160152 c 0,-1.625851 -0.83028,-3.32237 -2,-4.388672 -1.10021,-1.054296 -2.71379,-1.724609 -4.22851,-1.724609 z m 65.90429,0 c -1.55195,0 -3.22319,0.684138 -4.32617,1.787109 -1.10294,1.102959 -1.78711,2.774209 -1.78711,4.326172 l 0,76.390622 c 0,1.44184 0.52157,3.00368 1.49609,4.14063 a 3.3020386,3.3020386 0 0 0 0.35938,0.35742 c 1.00911,0.86496 2.32791,1.44789 3.6582,1.5957 a 3.3020386,3.3020386 0 0 0 0.36524,0.0195 l 42.41406,0 c 1.55194,0 3.2232,-0.68414 4.32617,-1.7871 1.10571,-1.10573 1.78516,-2.77971 1.78516,-4.32618 0,-1.55499 -0.62383,-3.282 -1.78516,-4.44336 -1.10297,-1.10297 -2.77423,-1.78711 -4.32617,-1.78711 l -35.94922,0 0,-25.73437 31.02734,0 c 1.55197,0 3.22321,-0.68414 4.32618,-1.78711 1.10298,-1.10298 1.78711,-2.77424 1.78711,-4.32617 0,-1.51475 -0.6678,-3.1277 -1.72461,-4.23047 -1.06631,-1.16974 -2.76282,-2 -4.38868,-2 l -31.02734,0 0,-25.851563 35.94922,0 c 1.55195,0 3.22321,-0.684156 4.32617,-1.787109 1.10572,-1.105735 1.78516,-2.779704 1.78516,-4.326172 0,-1.554999 -0.62382,-3.282005 -1.78516,-4.44336 -1.10296,-1.102957 -2.77422,-1.787109 -4.32617,-1.787109 l -42.17969,0 z m 120.79688,0.314453 c -1.75015,0.205895 -3.11285,1.243505 -4.07227,2.382812 a 3.3020386,3.3020386 0 0 0 -0.14453,0.183594 l -22.75586,31.248044 -22.75391,-31.248044 0.13086,0.19336 c -0.89972,-1.439586 -2.63322,-2.336814 -4.19336,-2.535157 -1.55489,-0.254881 -3.31409,0.25158 -4.5332,1.210938 -1.31411,0.927102 -2.21446,2.438352 -2.47851,3.890625 a 3.3020386,3.3020386 0 0 0 -0.0371,0.261719 c -0.16274,1.627331 0.45658,3.414395 1.5039,4.611328 l -0.18554,-0.230469 24.94922,34.25977 -24.94922,34.25976 0.14453,-0.18359 c -0.98128,1.16526 -1.78837,2.80281 -1.57422,4.62304 0.21415,1.82024 1.36983,3.21536 2.58789,4.12891 a 3.3020386,3.3020386 0 0 0 0.23047,0.16016 c 1.14948,0.71841 2.52767,1.08593 3.85937,1.08593 1.99242,0 3.93532,-1.47318 4.77344,-3.00976 l -0.23242,0.36719 22.75781,-31.15039 22.75586,31.14453 c 0.97149,1.33579 2.61321,2.64843 4.66211,2.64843 1.31478,0 2.64583,-0.40193 3.74023,-1.08593 a 3.3020386,3.3020386 0 0 0 0.23047,-0.16016 c 1.22395,-0.91796 2.13226,-2.38005 2.42969,-3.86719 0.33481,-1.67403 -0.24119,-3.67603 -1.33984,-4.93164 l 0.17968,0.22461 -25.05273,-34.2539 25.05273,-34.253911 -0.17968,0.22461 c 1.09252,-1.248591 1.66073,-3.234055 1.33789,-4.902344 -0.27607,-1.474344 -1.185,-3.020307 -2.53711,-3.933594 -1.13554,-0.875678 -2.66069,-1.556924 -4.30664,-1.363281 z M 463,91.693359 c 8.48117,0 15.32302,2.974794 21.26562,9.275391 a 3.3020386,3.3020386 0 0 0 0.0137,0.0137 c 6.00374,6.28963 8.96691,13.79156 9.04492,23.14453 -0.0779,9.18365 -3.03835,16.70501 -9.06641,23.16602 -0.002,0.002 -0.002,0.004 -0.004,0.006 -6.02805,6.38032 -12.87354,9.3789 -21.25391,9.3789 -8.38683,0 -15.28214,-3.00815 -21.39453,-9.4082 -6.00963,-6.3741 -8.92969,-13.87389 -8.92969,-23.14258 0,-9.35689 2.92424,-16.84888 8.92578,-23.13867 0.002,-0.002 0.002,-0.004 0.004,-0.006 6.10557,-6.314675 13.00482,-9.289061 21.39453,-9.289061 z m -314.79883,1.054688 16.96875,0 c 4.04442,0 7.16405,1.318959 10.0586,4.279297 a 3.3020386,3.3020386 0 0 0 0.0527,0.05273 c 2.96078,2.894978 4.28125,6.015072 4.28125,10.058592 0,4.04353 -1.32726,7.22181 -4.30664,10.20117 -2.8975,2.8975 -6.06449,4.24093 -10.13867,4.30664 l -16.91602,0 0,-28.898433 z" font-family="Quicksand" font-size="117.164" font-stretch="normal" font-style="normal" font-variant="normal" font-weight="normal" letter-spacing="0" transform="translate(-3.5355339,-26.769042)" word-spacing="0" style="line-height:125%;-inkscape-font-specification:Quicksand"/></g></svg>