<svg xmlns="http://www.w3.org/2000/svg" xmlns:svg="http://www.w3.org/2000/svg" id="svg2" width="164.322" height="116.908" version="1.1" viewBox="0 0 154.052 109.602"><metadata id="metadata7"/><g id="layer1" transform="translate(-122.22845,-45.745197)"><rect id="rect4146" width="154.052" height="109.602" x="122.228" y="45.745" fill="#3481cb" fill-opacity=".969" stroke="none" stroke-dasharray="none" stroke-miterlimit="4" stroke-opacity="1" stroke-width="3.8"/><path id="path4144-1" fill="none" fill-opacity="1" stroke="#3076ba" stroke-dasharray="none" stroke-linecap="butt" stroke-linejoin="miter" stroke-miterlimit="4" stroke-opacity=".969" stroke-width="3.8" d="m 152.97032,71.277464 16.96875,0 c 4.04442,0 7.16405,1.318959 10.0586,4.279297 a 3.3020386,3.3020386 0 0 0 0.0527,0.05273 c 2.96078,2.894978 4.28125,6.015072 4.28125,10.058592 0,4.04353 -1.32726,7.22181 -4.30664,10.20117 -2.8975,2.897497 -6.06449,4.240927 -10.13867,4.306637 l -16.91602,0 0,-28.89843 z m -6.22851,-12.34375 c -1.55195,0 -3.22321,0.684152 -4.32618,1.787109 -1.10298,1.102975 -1.7871,2.774237 -1.7871,4.326172 l 0,76.390625 c 0,1.55194 0.68414,3.22321 1.7871,4.32618 1.10297,1.10296 2.77424,1.7871 4.32618,1.7871 1.5147,0 3.12829,-0.6703 4.22851,-1.7246 1.16971,-1.0663 2,-2.76283 2,-4.38868 l 0,-28.95703 16.96875,-0.19726 c 7.18323,0 13.65748,-2.68092 18.73828,-7.76172 5.14926,-5.14925 7.87891,-11.656863 7.87891,-18.853523 0,-7.255315 -2.72233,-13.775816 -7.87891,-18.855467 -5.0729,-5.149818 -11.55146,-7.878906 -18.73828,-7.878906 l -23.19726,0 z" font-family="Quicksand" font-size="117.164" font-stretch="normal" font-style="normal" font-variant="normal" font-weight="normal" letter-spacing="0" word-spacing="0" style="line-height:125%;-inkscape-font-specification:Quicksand"/><path id="path4161" fill="none" fill-opacity="1" stroke="#2e71b3" stroke-dasharray="none" stroke-linecap="butt" stroke-linejoin="miter" stroke-miterlimit="4" stroke-opacity=".951" stroke-width="3.8" d="m 265.63634,59.248167 c -1.75015,0.205895 -3.11285,1.243505 -4.07227,2.382812 a 3.3020386,3.3020386 0 0 0 -0.14453,0.183594 l -22.75586,31.248044 -22.75391,-31.248044 0.13086,0.19336 c -0.89972,-1.439586 -2.63322,-2.336814 -4.19336,-2.535157 -1.55489,-0.254881 -3.31409,0.25158 -4.5332,1.210938 -1.31411,0.927102 -2.21446,2.438352 -2.47851,3.890625 a 3.3020386,3.3020386 0 0 0 -0.0371,0.261719 c -0.16274,1.627331 0.45658,3.414395 1.5039,4.611328 l -0.18554,-0.230469 24.94922,34.259773 -24.94922,34.25976 0.14453,-0.18359 c -0.98128,1.16526 -1.78837,2.80281 -1.57422,4.62304 0.21415,1.82024 1.36983,3.21536 2.58789,4.12891 a 3.3020386,3.3020386 0 0 0 0.23047,0.16016 c 1.14948,0.71841 2.52767,1.08593 3.85937,1.08593 1.99242,0 3.93532,-1.47318 4.77344,-3.00976 l -0.23242,0.36719 22.75781,-31.15039 22.75586,31.14453 c 0.97149,1.33579 2.61321,2.64843 4.66211,2.64843 1.31478,0 2.64583,-0.40193 3.74023,-1.08593 a 3.3020386,3.3020386 0 0 0 0.23047,-0.16016 c 1.22395,-0.91796 2.13226,-2.38005 2.42969,-3.86719 0.33481,-1.67403 -0.24119,-3.67603 -1.33984,-4.93164 l 0.17968,0.22461 -25.05273,-34.2539 25.05273,-34.253914 -0.17968,0.22461 c 1.09252,-1.248591 1.66073,-3.234055 1.33789,-4.902344 -0.27607,-1.474344 -1.185,-3.020307 -2.53711,-3.933594 -1.13554,-0.875678 -2.66069,-1.556924 -4.30664,-1.363281 z" font-family="Quicksand" font-size="117.164" font-stretch="normal" font-style="normal" font-variant="normal" font-weight="normal" letter-spacing="0" word-spacing="0" style="line-height:125%;-inkscape-font-specification:Quicksand"/><path id="path4173" fill="#fff" fill-opacity=".45" stroke="#242a37" stroke-dasharray="none" stroke-linecap="butt" stroke-linejoin="miter" stroke-miterlimit="4" stroke-opacity=".657" stroke-width="3.8" d="m 259.33166,55.546101 c -1.75015,0.205895 -3.11285,1.243505 -4.07227,2.382812 -0.0503,0.05947 -0.0985,0.12071 -0.14453,0.183594 L 232.359,89.360551 209.60509,58.112507 l 0.13086,0.19336 c -0.89972,-1.439586 -2.63322,-2.336814 -4.19336,-2.535157 -1.55489,-0.254881 -3.31409,0.25158 -4.5332,1.210938 -1.31411,0.927102 -2.21446,2.438352 -2.47851,3.890625 -0.0159,0.08671 -0.0282,0.174019 -0.0371,0.261719 -0.16274,1.627331 0.45658,3.414395 1.5039,4.611328 l -0.18554,-0.230469 24.94922,34.25977 -24.94922,34.259769 0.14453,-0.18359 c -0.98128,1.16526 -1.78837,2.80281 -1.57422,4.62304 0.21415,1.82024 1.36983,3.21536 2.58789,4.12891 0.0745,0.0566 0.15141,0.11006 0.23047,0.16016 1.14948,0.71841 2.52767,1.08593 3.85937,1.08593 1.99242,0 3.93532,-1.47318 4.77344,-3.00976 l -0.23242,0.36719 22.75781,-31.15039 22.75586,31.14453 c 0.97149,1.33579 2.61321,2.64843 4.66211,2.64843 1.31478,0 2.64583,-0.40193 3.74023,-1.08593 0.0791,-0.0501 0.15595,-0.10353 0.23047,-0.16016 1.22395,-0.91796 2.13226,-2.38005 2.42969,-3.86719 0.33481,-1.67403 -0.24119,-3.67603 -1.33984,-4.93164 l 0.17968,0.22461 -25.05273,-34.253909 25.05273,-34.253911 -0.17968,0.22461 c 1.09252,-1.248591 1.66073,-3.234055 1.33789,-4.902344 -0.27607,-1.474344 -1.185,-3.020307 -2.53711,-3.933594 -1.13554,-0.875678 -2.66069,-1.556924 -4.30665,-1.363281 z" font-family="Quicksand" font-size="117.164" font-stretch="normal" font-style="normal" font-variant="normal" font-weight="normal" letter-spacing="0" word-spacing="0" style="line-height:125%;-inkscape-font-specification:Quicksand"/><path id="path4144" fill="#fff" fill-opacity=".467" stroke="#242a37" stroke-dasharray="none" stroke-linecap="butt" stroke-linejoin="miter" stroke-miterlimit="4" stroke-opacity=".648" stroke-width="3.8" d="m 145.46834,67.575408 16.96875,0 c 4.04442,0 7.16405,1.318959 10.0586,4.279297 0.0174,0.01777 0.0349,0.03535 0.0527,0.05273 2.96078,2.894978 4.28125,6.015076 4.28125,10.058596 0,4.04353 -1.32726,7.22181 -4.30664,10.20117 -2.8975,2.8975 -6.06449,4.24093 -10.13867,4.30664 l -16.91602,0 0,-28.898437 z m -6.22851,-12.34375 c -1.55195,0 -3.22321,0.684152 -4.32618,1.787109 -1.10298,1.102975 -1.7871,2.774237 -1.7871,4.326172 l 0,76.390621 c 0,1.55194 0.68414,3.22321 1.7871,4.32618 1.10297,1.10296 2.77424,1.7871 4.32618,1.7871 1.5147,0 3.12829,-0.6703 4.22851,-1.7246 1.16971,-1.0663 2,-2.76283 2,-4.38868 l 0,-28.95703 16.96875,-0.19726 c 7.18323,0 13.65748,-2.68092 18.73828,-7.76172 5.14926,-5.149249 7.87891,-11.656859 7.87891,-18.853519 0,-7.255315 -2.72233,-13.775816 -7.87891,-18.855467 -5.0729,-5.149818 -11.55146,-7.878906 -18.73828,-7.878906 z" font-family="Quicksand" font-size="117.164" font-stretch="normal" font-style="normal" font-variant="normal" font-weight="normal" letter-spacing="0" word-spacing="0" style="line-height:125%;-inkscape-font-specification:Quicksand"/></g></svg>